# AST/ASF file generated using VICON BodyLanguage
# -----------------------------------------------
:version 1.10
:name VICON
:units
  mass 1.0
  length 0.45
  angle deg
:documentation
   .ast/.asf automatically generated from VICON data using
   VICON BodyBuilder and BodyLanguage model FoxedUp or BRILLIANT.MOD
:root
   order TX TY TZ RX RY RZ
   axis XYZ
   position 0 0 0  
   orientation 0 -0 0 
:bonedata
  begin
     id 1 
     name lhipjoint
     direction 0.515797 -0.759363 0.396637 
     length 2.47888 
     axis 0 -0 0  XYZ
  end
  begin
     id 2 
     name lfemur
     direction 0.34202 -0.939693 0  
     length 6.81885  
     axis 0 -0 20  XYZ
    dof rx ry rz
    limits (-160.0 20.0)
           (-70.0 70.0)
           (-60.0 70.0)
  end
  begin
     id 3 
     name ltibia
     direction 0.342037 -0.939687 0   
     length 7.89258   
     axis 0 -0 20   XYZ
    dof rx
    limits (-10.0 170.0)
  end
  begin
     id 4 
     name lfoot
     direction 0.173497 -0.476678 0.861787   
     length 2.51543   
     axis -90 -1.13533e-015 20   XYZ
    dof rx rz
    limits (-45.0 90.0)
           (-70.0 20.0)
  end
  begin
     id 5 
     name ltoes
     direction 1.53564e-011 -4.21897e-011 1   
     length 1.21388   
     axis -90 -1.13533e-015 20   XYZ
    dof rx
    limits (-90.0 20.0)
  end
  begin
     id 6 
     name rhipjoint
     direction -0.489454 -0.772941 0.403729   
     length 2.43534  
     axis 0 -0 0  XYZ 
  end
  begin
     id 7 
     name rfemur
     direction -0.34202 -0.939693 0   
     length 7.10357   
     axis 0 -0 -20   XYZ
    dof rx ry rz
    limits (-160.0 20.0)
           (-70.0 70.0)
           (-70.0 60.0)
  end
  begin
     id 8 
     name rtibia
     direction -0.34202 -0.939693 0   
     length 9.16127   
     axis 0 -0 -20   XYZ
    dof rx
    limits (-10.0 170.0)
 end
 begin
     id 9 
     name rfoot
     direction -0.270974 -0.748671 0.605033   
     length 1.74894  
     axis -90 1.13533e-015 -20   XYZ
    dof rx rz
    limits (-45.0 90.0)
           (-20.0 70.0)
  end
  begin
     id 10 
     name rtoes
     direction -1.53557e-011 -4.21759e-011 1   
     length 0.787585   
     axis -90 1.13533e-015 -20   XYZ
    dof rx
    limits (-90.0 20.0)
  end
  begin
     id 11 
     name lowerback
     direction -0.0140249 0.999561 0.0260968   
     length 2.16963   
     axis 0 -0 0   XYZ
    dof rx ry rz
    limits (-20.0 45.0)
           (-30.0 30.0)
           (-30.0 30.0)
  end
  begin
     id 12 
     name upperback
     direction 0.00860018 0.999959 -0.002711   
     length 2.1726   
     axis 0 -0 0   XYZ
    dof rx ry rz
    limits (-20.0 45.0)
           (-30.0 30.0)
           (-30.0 30.0)
  end
  begin
     id 13 
     name thorax
     direction 0.015211 0.999782 -0.0143191   
     length 2.17061   
     axis 0 -0 0   XYZ
    dof rx ry rz
    limits (-20.0 45.0)
           (-30.0 30.0)
           (-30.0 30.0)
  end
  begin
     id 14 
     name lowerneck
     direction -0.0140143 0.999447 0.030145   
     length 2.26749   
     axis 0 -0 0   XYZ
    dof rx ry rz
    limits (-20.0 45.0)
           (-30.0 30.0)
           (-30.0 30.0)
  end
  begin
     id 15 
     name upperneck
     direction 0.118062 0.961438 -0.248392   
     length 2.22728   
     axis 0 -0 0   XYZ
    dof rx ry rz
    limits (-20.0 45.0)
           (-30.0 30.0)
           (-30.0 30.0)
  end
  begin
     id 16
     name head
     direction 0.0431885 0.9954 -0.085514  
     length 2.28786  
     axis 0 -0 0   XYZ
    dof rx ry rz
    limits (-20.0 45.0)
           (-30.0 30.0)
           (-30.0 30.0)
  end
  begin
     id 17 
     name lclavicle
     direction 0.912126 0.409548 0.0172323  
     length 4.31571  
     axis 0 -0 0   XYZ
    dof ry rz
    limits (-20.0 10.0)
           (0.0 20.0)
  end
  begin
     id 18 
     name lhumerus
     direction 1 -4.48977e-011 1.93091e-027   
     length 5.13658   
     axis 180 -30 -90   XYZ
    dof rx ry rz
    limits (-60.0 90.0)
           (-90.0 90.0)
           (-90.0 90.0)
  end
  begin
     id 19
     name lradius
     direction 1 -4.48916e-011 6.84018e-027   
     length 3.22473   
     axis 180 -30 -90   XYZ
    dof rx
    limits (-10.0 170.0)
  end
  begin
     id 20
     name lwrist
     direction 1 -4.48987e-011 7.01981e-027   
     length 1.61236   
     axis -4.37994e-015 90 90   XYZ
    dof ry
    limits (-180.0 0.0)
 end
  begin
     id 21 
     name lhand
     direction 1 -4.49037e-011 1.40335e-026   
     length 0.936406   
     axis -8.96029e-015 90 90   XYZ
    dof rx rz
    limits (-90.0 90.0)
           (-45.0 45.0)
  end
  begin
     id 22 
     name lfingers
     direction 1 -4.48886e-011 2.8104e-026   
     length 0.754955   
     axis -1.79203e-014 90 90   XYZ
    dof rx
    limits (0.0 90.0)
  end
  begin
     id 23
     name lthumb
     direction 0.707107 -6.34937e-011 0.707107   
     length 1.08397   
     axis -90 45 -4.48555e-014   XYZ
    dof rx rz
    limits (-45.0 45.0)
           (-45.0 45.0)
  end
  begin
     id 24 
     name rclavicle
     direction -0.947962 0.317997 0.0156638   
     length 4.86918  
     axis 0 -0 0   XYZ 
    dof ry rz
    limits (-10.0 20.0)
           (-20.0 0.0)
  end
  begin
     id 25 
     name rhumerus
     direction -1 -4.48951e-011 2.80534e-018  
     length 5.60911   
     axis 180 30 90   XYZ
    dof rx ry rz
    limits (-90.0 60.0)
           (-90.0 90.0)
           (-90.0 90.0)
  end
  begin
     id 26 
     name rradius
     direction -1 -4.4898e-011 2.11315e-027   
     length 3.38704   
     axis 180 30 90   XYZ
    dof rx
    limits (-10.0 170.0)
  end
  begin
     id 27 
     name rwrist
     direction -1 -4.48933e-011 7.02314e-027   
     length 1.69352   
     axis -4.37994e-015 -90 -90   XYZ
    dof ry
    limits (-180.0 0.0)
  end
  begin
     id 28
     name rhand
     direction -1 -4.48937e-011 1.40458e-026   
     length 0.755878   
     axis -8.96029e-015 -90 -90   XYZ
    dof rx rz
    limits (-90.0 90.0)
           (-45.0 45.0)
  end
  begin
     id 29
     name rfingers
     direction -1 -4.4901e-011 2.80737e-026   
     length 0.609409   
     axis -1.79203e-014 -90 -90   XYZ
    dof rx
    limits (0.0 90.0)
  end
  begin
     id 30
     name rthumb
     direction -0.707107 -6.34968e-011 0.707107   
     length 0.874992   
     axis -90 -45 4.48555e-014   XYZ
    dof rx rz
    limits (-45.0 45.0)
           (-45.0 45.0)
  end
:hierarchy
  begin
    root lhipjoint rhipjoint lowerback
    lhipjoint lfemur
    lfemur ltibia
    ltibia lfoot
    lfoot ltoes
    rhipjoint rfemur
    rfemur rtibia
    rtibia rfoot
    rfoot rtoes
    lowerback upperback
    upperback thorax
    thorax lowerneck lclavicle rclavicle
    lowerneck upperneck
    upperneck head
    lclavicle lhumerus
    lhumerus lradius
    lradius lwrist
    lwrist lhand lthumb
    lhand lfingers
    rclavicle rhumerus
    rhumerus rradius
    rradius rwrist
    rwrist rhand rthumb
    rhand rfingers
  end

#!OML:ASF C:\ViconDB\ViconDB\414\Spring2016\041811\Spring2016.ASF
:FULLY-SPECIFIED
:DEGREES
78
root 7.38323 17.2337 13.6491 -170.631 -9.887 173.695
lowerback 9.02676 0.190788 -6.27557
upperback 2.23661 -0.847988 -3.94353
thorax -2.72329 -0.560514 -0.466337
lowerneck -12.8006 -6.72025 -16.4447
upperneck 10.2735 -10.509 24.2092
head 7.57254 -4.47322 9.79186
rclavicle 4.17448e-015 3.18055e-015
rhumerus -55.0371 -2.17073 -89.7577
rradius 77.1338
rwrist 9.77226
rhand -33.5272 -13.5934
rfingers 7.12502
rthumb -6.72321 -43.4667
lclavicle 4.17448e-015 3.18055e-015
lhumerus -45.962 -27.2399 98.3068
lradius 76.915
lwrist -13.6953
lhand -37.5871 13.3349
lfingers 7.12502
lthumb -10.641 43.0455
rfemur -35.2017 -19.8185 8.21688
rtibia 104.002
rfoot -145.425 -6.53134
rtoes -19.7041
lfemur -19.7304 0.315967 -27.8847
ltibia 49.6703
lfoot -23.4593 -12.4249
ltoes -16.0723
79
root 7.40218 17.1878 13.343 -170.617 -10.9093 173.851
lowerback 9.2896 -0.158651 -6.02046
upperback 2.36485 -1.3 -3.86677
thorax -2.72208 -0.786931 -0.475801
lowerneck -12.7859 -6.73523 -16.4398
upperneck 10.2166 -10.6488 24.6205
head 7.61583 -4.53838 9.92736
rclavicle 1.98785e-015 -4.85035e-014
rhumerus -56.7484 -3.0746 -89.9337
rradius 74.9254
rwrist 7.56245
rhand -33.517 -14.294
rfingers 7.12502
rthumb -6.7133 -44.1676
lclavicle 1.98785e-015 -4.85035e-014
lhumerus -42.4175 -28.8782 98.9419
lradius 78.6408
lwrist -14.6927
lhand -37.1909 11.6405
lfingers 7.12502
lthumb -10.2588 41.3704
rfemur -38.6285 -20.7612 8.65144
rtibia 105.708
rfoot -146.719 -5.28919
rtoes -17.6787
lfemur -18.4086 -0.908183 -27.2537
ltibia 49.3462
lfoot -23.9103 -12.9241
ltoes -17.4151
80
root 7.42384 17.1667 13.0156 -170.587 -11.9387 173.91
lowerback 9.57771 -0.53851 -6.1282
upperback 2.40957 -1.81293 -3.59749
thorax -2.80422 -1.03239 -0.0733226
lowerneck -12.6713 -6.73972 -16.8521
upperneck 10.2016 -10.7404 25.1893
head 7.67909 -4.59396 10.2173
rclavicle 1.13307e-014 -6.59965e-014
rhumerus -58.9237 -2.64495 -90.4033
rradius 73.5363
rwrist 5.03931
rhand -33.8605 -14.8274
rfingers 7.12502
rthumb -7.04494 -44.6902
lclavicle 1.13307e-014 -6.59965e-014
lhumerus -39.1456 -30.4519 99.9048
lradius 80.6158
lwrist -15.6999
lhand -37.5024 10.7156
lfingers 7.12502
lthumb -10.5593 40.4303
rfemur -41.6758 -21.5095 9.12532
rtibia 106.571
rfoot -147.57 -4.10829
rtoes -17.4958
lfemur -16.9848 -2.21783 -26.6664
ltibia 48.8153
lfoot -24.1687 -13.3658
ltoes -17.4435
81
root 7.44757 17.1502 12.6881 -170.653 -12.9079 174.172
lowerback 9.90086 -0.900847 -6.01813
upperback 2.50081 -2.28251 -3.33059
thorax -2.86036 -1.25938 0.203611
lowerneck -12.6253 -6.73886 -17.1278
upperneck 10.0617 -10.8356 25.7979
head 7.71479 -4.64795 10.4925
rclavicle -1.70955e-014 -3.97569e-014
rhumerus -61.3962 -1.71344 -91.251
rradius 72.9376
rwrist 4.26394
rhand -34.0022 -15.292
rfingers 7.12502
rthumb -7.18171 -45.1501
lclavicle -1.70955e-014 -3.97569e-014
lhumerus -35.9082 -32.1366 100.507
lradius 82.8755
lwrist -17.2018
lhand -37.3411 10.2042
lfingers 7.12502
lthumb -10.4037 39.9268
rfemur -44.6277 -21.9154 10.0347
rtibia 106.885
rfoot -148.51 -3.04454
rtoes -16.5091
lfemur -15.3761 -3.47772 -25.9567
ltibia 48.0227
lfoot -24.2935 -13.3824
ltoes -17.9848
